<?xml version="1.0" encoding="utf-8"?>
<!-- Generator: Adobe Illustrator 23.0.0, SVG Export Plug-In . SVG Version: 6.00 Build 0)  -->
<svg version="1.1" id="Layer_1" xmlns="http://www.w3.org/2000/svg" xmlns:xlink="http://www.w3.org/1999/xlink" x="0px" y="0px"
	 viewBox="0 0 595.3 595.3" style="enable-background:new 0 0 595.3 595.3;" xml:space="preserve">
<style type="text/css">
	.st0{fill:none;}
	.st1{stroke:#000000;stroke-miterlimit:10;}
</style>
<g>
	<g>
		<path d="M230.2,335.6v31.3h31.2l92.2-92.2l-31.3-31.2C322.4,243.4,230.2,335.6,230.2,335.6z M377.8,250.5c3.2-3.3,3.2-8.5,0-11.8
			l-19.5-19.5c-3.3-3.3-8.5-3.3-11.8,0l-15.3,15.3l31.3,31.3L377.8,250.5z"/>
		<path class="st0" d="M205.2,191.8h200v200h-200L205.2,191.8L205.2,191.8z"/>
	</g>
	
		<image style="overflow:visible;enable-background:new    ;" width="512" height="512" xlink:href="plus-40.png"  transform="matrix(0.162 0 0 0.162 212.0455 204.321)">
	</image>
</g>
<rect x="249.6" y="221.3" class="st1" width="7.1" height="49"/>
<rect x="229" y="241.9" class="st1" width="48.6" height="6.4"/>
</svg>
