<?xml version="1.0" encoding="utf-8"?>
<!-- Generator: Adobe Illustrator 23.0.0, SVG Export Plug-In . SVG Version: 6.00 Build 0)  -->
<svg version="1.1" id="Layer_1" xmlns="http://www.w3.org/2000/svg" xmlns:xlink="http://www.w3.org/1999/xlink" x="0px" y="0px"
	 viewBox="0 0 595.3 595.3" style="enable-background:new 0 0 595.3 595.3;" xml:space="preserve">
<style type="text/css">
	.Drop_x0020_Shadow{fill:none;}
	.Round_x0020_Corners_x0020_2_x0020_pt{fill:#FFFFFF;stroke:#000000;stroke-miterlimit:10;}
	.Live_x0020_Reflect_x0020_X{fill:none;}
	.Bevel_x0020_Soft{fill:url(#SVGID_1_);}
	.Dusk{fill:#FFFFFF;}
	.Foliage_GS{fill:#FFDD00;}
	.Pompadour_GS{fill-rule:evenodd;clip-rule:evenodd;fill:#44ADE2;}
	.st0{fill:none;stroke:#000000;stroke-width:5;stroke-miterlimit:10;}
	.st1{fill:none;stroke:#000000;stroke-width:5;stroke-miterlimit:10;stroke-dasharray:30;}
	.st2{fill:#BAB9BA;stroke:#000000;stroke-width:5;stroke-miterlimit:10;}
</style>
<linearGradient id="SVGID_1_" gradientUnits="userSpaceOnUse" x1="0" y1="0" x2="0.7071" y2="0.7071">
	<stop  offset="0" style="stop-color:#DEDFE3"/>
	<stop  offset="0.1738" style="stop-color:#D8D9DD"/>
	<stop  offset="0.352" style="stop-color:#C9CACD"/>
	<stop  offset="0.5323" style="stop-color:#B4B5B8"/>
	<stop  offset="0.7139" style="stop-color:#989A9C"/>
	<stop  offset="0.8949" style="stop-color:#797C7E"/>
	<stop  offset="1" style="stop-color:#656B6C"/>
</linearGradient>
<line class="st0" x1="72.7" y1="300.1" x2="225.9" y2="298.5"/>
<line class="st0" x1="377.1" y1="297.6" x2="376.8" y2="451.1"/>
<line class="st0" x1="525.6" y1="298.5" x2="377.1" y2="298.5"/>
<line class="st0" x1="524.4" y1="144.4" x2="525.6" y2="298.5"/>
<line class="st0" x1="70.9" y1="144.4" x2="524.4" y2="144.4"/>
<line class="st0" x1="75.6" y1="300.8" x2="74.7" y2="141.3"/>
<line class="st0" x1="376.8" y1="451.1" x2="226.8" y2="450.1"/>
<line class="st0" x1="226.8" y1="450.1" x2="225.1" y2="298"/>
<line class="st1" x1="71.7" y1="128.7" x2="525.3" y2="128.7"/>
<line class="st1" x1="376.3" y1="464.8" x2="226.4" y2="463.9"/>
<g>
	
		<rect x="67" y="290.8" transform="matrix(0.7071 -0.7071 0.7071 0.7071 -190.6999 143.8817)" class="st2" width="22.7" height="22.7"/>
	
		<rect x="513.3" y="288.4" transform="matrix(0.7071 -0.7071 0.7071 0.7071 -58.2839 458.7487)" class="st2" width="22.7" height="22.7"/>
	
		<rect x="367.6" y="286.6" transform="matrix(0.7071 -0.7071 0.7071 0.7071 -99.6685 355.1714)" class="st2" width="22.7" height="22.7"/>
	
		<rect x="211.8" y="288.4" transform="matrix(0.7071 -0.7071 0.7071 0.7071 -146.5981 245.5393)" class="st2" width="22.7" height="22.7"/>
</g>
</svg>
